# xmcd
#
# Track frame offsets:
#	150
#	52803
#	69360
#	95391
#	109380
#	135948
#	148173
#	181132
#	204658
#	208824
#
# Disc length: 3640 seconds
#
# Revision: 1
# Processed by: cddbd v1.5.2PL0 Copyright (c) Steve Scherf et al.
# Submitted via: audiograbber 1.83.01
#
DISCID=8f0e360a
DTITLE=Tracer AMC - Islands
DYEAR=2005
DGENRE=Shoegaze
TTITLE0=Paper Machete
TTITLE1=Chalk
TTITLE2=Concorde
TTITLE3=Song For V
TTITLE4=In Rivers
TTITLE5=Willow Drive, Hoboken
TTITLE6=Indiscopia
TTITLE7=Rainboat
TTITLE8=Bird
TTITLE9=You Follow The Snow And Are Wasted
EXTD=YEAR: 2005
EXTT0=
EXTT1=
EXTT2=
EXTT3=
EXTT4=
EXTT5=
EXTT6=
EXTT7=
EXTT8=
EXTT9=
PLAYORDER=
